<svg width="24" height="24" viewBox="0 0 24 24" fill="none" xmlns="http://www.w3.org/2000/svg">
  <!-- Main circle representing the platform -->
  <circle cx="12" cy="12" r="10" stroke="currentColor" stroke-width="2" fill="none"/>
  
  <!-- Digital media elements -->
  <!-- Document/Article icon -->
  <path d="M8 6h8v2H8V6z" fill="currentColor"/>
  <path d="M8 9h6v1H8V9z" fill="currentColor"/>
  <path d="M8 11h8v1H8V11z" fill="currentColor"/>
  <path d="M8 13h6v1H8V13z" fill="currentColor"/>
  <path d="M8 15h8v1H8V15z" fill="currentColor"/>
  
  <!-- Media play button -->
  <circle cx="16" cy="8" r="2" fill="currentColor"/>
  <path d="M15 7l2 1.5L15 10V7z" fill="white"/>
  
  <!-- Connection lines representing digital network -->
  <path d="M6 8l2-2M6 16l2 2M18 8l-2-2M18 16l-2 2" stroke="currentColor" stroke-width="1" stroke-linecap="round"/>
</svg>
